<?xml version="1.0" encoding="UTF-8"?>
<!DOCTYPE svg PUBLIC "-//W3C//DTD SVG 1.1//EN" "http://www.w3.org/Graphics/SVG/1.1/DTD/svg11.dtd">
<svg xmlns="http://www.w3.org/2000/svg" version="1.1" width="410px" height="64px" style="shape-rendering:geometricPrecision; text-rendering:geometricPrecision; image-rendering:optimizeQuality; fill-rule:evenodd; clip-rule:evenodd" xmlns:xlink="http://www.w3.org/1999/xlink">
<g><path style="opacity:0.997" fill="#c5c3c2" d="M 43.5,6.5 C 55.4938,5.86838 67.3272,6.86838 79,9.5C 86.203,11.2672 92.5363,14.6006 98,19.5C 99.5588,21.2166 100.392,23.2166 100.5,25.5C 96.8101,24.8776 93.4768,23.3776 90.5,21C 85.6059,19.3878 80.6059,18.2211 75.5,17.5C 68.8039,18.343 64.1372,21.843 61.5,28C 56.467,28.8289 51.467,28.6623 46.5,27.5C 43.8336,21.0794 39.0003,17.7461 32,17.5C 25.4501,17.8999 19.7835,20.2332 15,24.5C 14.6667,24.1667 14.3333,23.8333 14,23.5C 12.8904,25.0368 11.3904,25.7035 9.5,25.5C 9.33982,23.8008 9.50649,22.1341 10,20.5C 19.7867,12.408 30.9534,7.7413 43.5,6.5 Z"/></g>
<g><path style="opacity:0.998" fill="#c2c1c0" d="M 151.5,8.5 C 137.5,8.5 123.5,8.5 109.5,8.5C 109.5,11.5 109.5,14.5 109.5,17.5C 114.5,17.5 119.5,17.5 124.5,17.5C 124.5,29.1667 124.5,40.8333 124.5,52.5C 128.5,52.5 132.5,52.5 136.5,52.5C 136.833,52.5 137.167,52.5 137.5,52.5C 137.389,53.1174 137.056,53.6174 136.5,54C 131.581,54.8015 126.748,54.6349 122,53.5C 121.5,42.1716 121.333,30.8382 121.5,19.5C 116.821,19.6658 112.155,19.4992 107.5,19C 106.167,15 106.167,11 107.5,7C 123.074,6.17622 138.574,6.34289 154,7.5C 154.667,6.83333 155.333,6.16667 156,5.5C 166.757,6.32145 177.59,6.82145 188.5,7C 196.363,9.37806 200.029,14.7114 199.5,23C 199.932,29.2217 197.598,34.0551 192.5,37.5C 195.81,41.978 199.31,46.3114 203,50.5C 203.49,51.7932 203.657,53.1266 203.5,54.5C 198.156,54.666 192.823,54.4994 187.5,54C 181.333,46.5 175.167,39 169,31.5C 168.799,39.1633 168.632,46.4966 168.5,53.5C 163.833,54.8333 159.167,54.8333 154.5,53.5C 154.187,38.1767 153.187,23.1767 151.5,8.5 Z M 169.5,19.5 C 173.846,19.3343 178.179,19.501 182.5,20C 183.935,22.2672 183.602,24.2672 181.5,26C 177.179,26.499 172.846,26.6657 168.5,26.5C 168.298,24.0504 168.631,21.717 169.5,19.5 Z"/></g>
<g><path style="opacity:0.998" fill="#c3c3c2" d="M 151.5,8.5 C 151.813,12.0419 151.479,15.3752 150.5,18.5C 145.833,18.5 141.167,18.5 136.5,18.5C 136.5,29.8333 136.5,41.1667 136.5,52.5C 132.5,52.5 128.5,52.5 124.5,52.5C 124.5,40.8333 124.5,29.1667 124.5,17.5C 119.5,17.5 114.5,17.5 109.5,17.5C 109.5,14.5 109.5,11.5 109.5,8.5C 123.5,8.5 137.5,8.5 151.5,8.5 Z"/></g>
<g><path style="opacity:0.999" fill="#c3c2c1" d="M 202.5,6.5 C 207.43,6.19749 212.263,6.53082 217,7.5C 217.333,18.5 217.667,29.5 218,40.5C 222.052,42.9423 226.219,43.109 230.5,41C 231.167,39.6667 231.833,38.3333 232.5,37C 232.577,27.3397 232.411,17.5064 232,7.5C 236.737,6.53082 241.57,6.19749 246.5,6.5C 246.667,18.8378 246.5,31.1712 246,43.5C 241.18,51.9008 233.846,55.5675 224,54.5C 217.553,55.3551 211.719,53.8551 206.5,50C 204.959,48.4207 203.792,46.5873 203,44.5C 202.5,31.8377 202.333,19.1711 202.5,6.5 Z"/></g>
<g><path style="opacity:0.997" fill="#c4c2c1" d="M 250.5,6.5 C 261.838,6.33348 273.172,6.50014 284.5,7C 292.737,9.27504 296.737,14.775 296.5,23.5C 296.369,31.2872 292.702,36.4539 285.5,39C 278.842,39.4996 272.175,39.6663 265.5,39.5C 265.5,44.5 265.5,49.5 265.5,54.5C 260.57,54.8025 255.737,54.4692 251,53.5C 250.5,37.8369 250.333,22.1702 250.5,6.5 Z M 265.5,19.5 C 269.514,19.3345 273.514,19.5012 277.5,20C 280.993,21.4781 281.326,23.4781 278.5,26C 274.179,26.499 269.846,26.6657 265.5,26.5C 265.5,24.1667 265.5,21.8333 265.5,19.5 Z"/></g>
<g><path style="opacity:0.997" fill="#c4c2c1" d="M 297.5,6.5 C 311.167,6.5 324.833,6.5 338.5,6.5C 338.5,10.8333 338.5,15.1667 338.5,19.5C 329.833,19.5 321.167,19.5 312.5,19.5C 312.5,21.1667 312.5,22.8333 312.5,24.5C 318.919,24.5806 325.252,24.414 331.5,24C 332.464,28.0659 332.797,32.2325 332.5,36.5C 325.833,36.5 319.167,36.5 312.5,36.5C 312.5,38.1667 312.5,39.8333 312.5,41.5C 320.84,41.3336 329.173,41.5003 337.5,42C 338.464,46.0659 338.797,50.2325 338.5,54.5C 324.921,54.823 311.421,54.4897 298,53.5C 297.5,37.8369 297.333,22.1702 297.5,6.5 Z"/></g>
<g><path style="opacity:0.996" fill="#c3c2c1" d="M 343.5,5.5 C 354.121,6.2878 364.788,6.7878 375.5,7C 379.953,7.36256 383.12,9.52922 385,13.5C 387.927,6.11414 392.594,4.7808 399,9.5C 401.127,19.5414 397.293,23.2081 387.5,20.5C 388.208,27.4181 385.874,33.0848 380.5,37.5C 383.096,41.9315 386.262,45.9315 390,49.5C 390.494,51.1341 390.66,52.8008 390.5,54.5C 385.489,54.6659 380.489,54.4993 375.5,54C 369.333,46.5 363.167,39 357,31.5C 356.5,39.1594 356.334,46.8261 356.5,54.5C 351.821,54.6658 347.155,54.4992 342.5,54C 341.692,53.6924 341.025,53.1924 340.5,52.5C 340.839,36.6398 341.839,20.9731 343.5,5.5 Z M 356.5,19.5 C 361.179,19.3342 365.845,19.5008 370.5,20C 371.935,22.2672 371.602,24.2672 369.5,26C 365.179,26.499 360.846,26.6657 356.5,26.5C 356.5,24.1667 356.5,21.8333 356.5,19.5 Z"/></g>
<g><path style="opacity:0.004" fill="#fefffe" d="M 150.5,18.5 C 146.366,19.4849 142.032,19.8182 137.5,19.5C 137.5,30.5 137.5,41.5 137.5,52.5C 137.167,52.5 136.833,52.5 136.5,52.5C 136.5,41.1667 136.5,29.8333 136.5,18.5C 141.167,18.5 145.833,18.5 150.5,18.5 Z"/></g>
<g><path style="opacity:0.999" fill="#c5c3c2" d="M 46.5,32.5 C 51.5111,32.3341 56.5111,32.5007 61.5,33C 64.1495,39.8107 69.1495,43.3107 76.5,43.5C 84.5363,41.6003 92.203,38.9337 99.5,35.5C 99.7529,37.8273 99.0863,39.8273 97.5,41.5C 88.4183,48.4786 78.085,52.6452 66.5,54C 51.429,55.762 36.7623,54.0953 22.5,49C 18.4439,46.8856 14.6106,44.3856 11,41.5C 9.87201,39.6547 9.37201,37.6547 9.5,35.5C 16.6796,39.3387 24.3463,42.0054 32.5,43.5C 39.5787,42.7408 44.2454,39.0741 46.5,32.5 Z"/></g>
</svg>
