<?xml version="1.0" encoding="UTF-8"?>
<!DOCTYPE svg PUBLIC "-//W3C//DTD SVG 1.1//EN" "http://www.w3.org/Graphics/SVG/1.1/DTD/svg11.dtd">
<svg xmlns="http://www.w3.org/2000/svg" version="1.1" width="2059px" height="706px" style="shape-rendering:geometricPrecision; text-rendering:geometricPrecision; image-rendering:optimizeQuality; fill-rule:evenodd; clip-rule:evenodd" xmlns:xlink="http://www.w3.org/1999/xlink">
<g><path style="opacity:1" fill="#c2c2c2" d="M 53.5,81.5 C 118.501,81.3333 183.501,81.5 248.5,82C 316.119,89.2861 355.619,126.453 367,193.5C 375.117,242.487 360.95,283.653 324.5,317C 320.167,320 315.833,323 311.5,326C 343.255,339.091 364.755,361.924 376,394.5C 386.957,431.726 387.291,469.06 377,506.5C 361.926,550.574 332.426,580.408 288.5,596C 279.024,599.119 269.357,601.452 259.5,603C 190.596,603.831 121.763,603.665 53,602.5C 52.1681,428.764 52.3348,255.097 53.5,81.5 Z M 178.5,167.5 C 187.839,167.334 197.173,167.5 206.5,168C 234.481,173.098 248.481,189.932 248.5,218.5C 247.988,250.851 231.654,269.351 199.5,274C 191.173,274.5 182.84,274.666 174.5,274.5C 174.5,239.167 174.5,203.833 174.5,168.5C 176.099,168.768 177.432,168.434 178.5,167.5 Z M 175.5,385.5 C 193.346,383.876 210.679,386.043 227.5,392C 244.751,399.656 254.917,412.823 258,431.5C 264.731,478.081 244.898,504.581 198.5,511C 190.507,511.5 182.507,511.666 174.5,511.5C 174.173,469.428 174.506,427.428 175.5,385.5 Z"/></g>
<g><path style="opacity:1" fill="#c2c2c2" d="M 453.5,81.5 C 492.848,81.1362 532.181,81.6362 571.5,83C 597.186,83.6206 622.186,87.9539 646.5,96C 676.858,109.213 696.692,131.713 706,163.5C 715.965,198.403 717.965,233.736 712,269.5C 702.773,304.044 682.94,330.544 652.5,349C 672.88,351.108 688.38,360.942 699,378.5C 709.455,395.313 715.122,413.647 716,433.5C 717.454,490.496 718.621,547.496 719.5,604.5C 678.5,604.5 637.5,604.5 596.5,604.5C 596.175,546.481 595.009,488.481 593,430.5C 591.463,415.923 583.963,405.757 570.5,400C 555.872,394.816 540.872,393.316 525.5,395.5C 525.5,465.167 525.5,534.833 525.5,604.5C 485.167,604.5 444.833,604.5 404.5,604.5C 404.5,431.167 404.5,257.833 404.5,84.5C 420.974,83.421 437.307,82.421 453.5,81.5 Z M 525.5,167.5 C 588.646,167.477 612.813,198.144 598,259.5C 590.014,276.474 576.847,287.308 558.5,292C 547.597,294.613 536.597,295.446 525.5,294.5C 525.5,252.167 525.5,209.833 525.5,167.5 Z"/></g>
<g><path style="opacity:1" fill="#c2c2c2" d="M 757.5,81.5 C 836.833,81.5 916.167,81.5 995.5,81.5C 995.5,122.5 995.5,163.5 995.5,204.5C 969.5,204.5 943.5,204.5 917.5,204.5C 917.5,231.5 917.5,258.5 917.5,285.5C 934.744,285.175 951.91,285.508 969,286.5C 969.667,321.833 969.667,357.167 969,392.5C 951.91,393.492 934.744,393.825 917.5,393.5C 917.5,423.167 917.5,452.833 917.5,482.5C 943.5,482.5 969.5,482.5 995.5,482.5C 995.5,523.167 995.5,563.833 995.5,604.5C 915.929,604.832 836.429,604.498 757,603.5C 756.168,429.43 756.335,255.43 757.5,81.5 Z"/></g>
<g><path style="opacity:1" fill="#c2c2c2" d="M 1035.5,81.5 C 1067.5,81.3334 1099.5,81.5 1131.5,82C 1153.21,117.917 1175.04,153.75 1197,189.5C 1218.46,153.417 1240.29,117.583 1262.5,82C 1294.5,81.5 1326.5,81.3334 1358.5,81.5C 1358.5,255.833 1358.5,430.167 1358.5,604.5C 1322.83,604.5 1287.17,604.5 1251.5,604.5C 1251.67,512.499 1251.5,420.499 1251,328.5C 1233.25,358.333 1215.25,388 1197,417.5C 1179,388.167 1161,358.833 1143,329.5C 1142.5,421.166 1142.33,512.833 1142.5,604.5C 1106.83,604.5 1071.17,604.5 1035.5,604.5C 1035.5,430.167 1035.5,255.833 1035.5,81.5 Z"/></g>
<g><path style="opacity:1" fill="#c2c2c2" d="M 1399.5,81.5 C 1478.83,81.5 1558.17,81.5 1637.5,81.5C 1637.5,122.5 1637.5,163.5 1637.5,204.5C 1611.5,204.5 1585.5,204.5 1559.5,204.5C 1559.5,231.5 1559.5,258.5 1559.5,285.5C 1576.74,285.175 1593.91,285.508 1611,286.5C 1611.67,321.833 1611.67,357.167 1611,392.5C 1593.91,393.492 1576.74,393.825 1559.5,393.5C 1559.5,423.167 1559.5,452.833 1559.5,482.5C 1585.5,482.5 1611.5,482.5 1637.5,482.5C 1637.5,523.167 1637.5,563.833 1637.5,604.5C 1557.93,604.832 1478.43,604.498 1399,603.5C 1398.17,429.43 1398.33,255.43 1399.5,81.5 Z"/></g>
<g><path style="opacity:1" fill="#c2c2c2" d="M 1677.5,81.5 C 1708.17,81.3334 1738.84,81.5 1769.5,82C 1802.21,136.583 1835.04,191.083 1868,245.5C 1868.5,190.834 1868.67,136.168 1868.5,81.5C 1908.74,81.1701 1948.91,81.5034 1989,82.5C 1989.67,256.167 1989.67,429.833 1989,603.5C 1956.57,604.662 1924.07,604.829 1891.5,604C 1860.33,552.167 1829.17,500.333 1798,448.5C 1797.5,500.499 1797.33,552.499 1797.5,604.5C 1757.26,604.83 1717.09,604.497 1677,603.5C 1676.17,429.43 1676.33,255.43 1677.5,81.5 Z"/></g>
</svg>
