<svg version="1.1" id="Layer_1" xmlns="http://www.w3.org/2000/svg" xmlns:xlink="http://www.w3.org/1999/xlink" x="0px" y="0px"
	 width="100%" viewBox="0 0 2127 658" enable-background="new 0 0 2127 658" xml:space="preserve">
<path fill="#FFFFFF" opacity="1.000000" stroke="none" 
	d="
M2128.000000,287.999969 
	C2128.000000,411.643585 2128.000000,535.287170 2128.000000,659.000000 
	C1523.969116,659.000000 919.938171,659.000000 315.609131,658.606995 
	C318.216797,657.809998 321.155365,657.565247 324.022858,656.975220 
	C338.240753,654.049500 352.596405,651.623779 366.609955,647.913208 
	C389.281433,641.910156 410.470276,632.271484 430.604523,620.151245 
	C446.527100,610.566223 461.604279,599.848999 475.091919,587.162231 
	C485.059357,577.786743 494.184998,567.468140 503.221222,557.162415 
	C515.537476,543.115845 525.218750,527.224243 534.009644,510.795685 
	C543.383240,493.278259 550.490784,474.806000 555.590942,455.664886 
	C561.174072,434.710999 565.216431,413.417938 564.965027,391.579376 
	C564.827698,379.659149 564.769470,367.709961 563.869507,355.834930 
	C563.072021,345.310211 561.888062,334.707153 559.589111,324.426147 
	C554.703979,302.579254 548.050354,281.232422 537.672302,261.257721 
	C530.321838,247.110245 536.424133,239.576385 543.745667,235.071777 
	C550.049133,231.193573 556.574402,227.675797 563.003052,224.001205 
	C585.794250,210.973862 608.481567,197.759644 631.423523,185.003342 
	C642.267822,178.973587 643.935608,165.212601 637.483215,156.856079 
	C632.245850,150.073090 627.478882,142.928116 622.459534,135.975220 
	C612.270325,121.860870 600.326355,109.359177 587.878601,97.210831 
	C570.044495,79.805740 550.454041,64.766464 529.246277,51.838139 
	C510.376953,40.335369 490.657410,30.466249 469.815857,22.955570 
	C450.543396,16.010355 431.087402,9.730731 410.701447,6.933935 
	C397.963562,5.186396 385.196503,3.652097 372.448608,1.976097 
	C371.276550,1.822003 370.148499,1.333319 369.000000,1.000000 
	C955.215759,1.000000 1541.431519,1.000000 2128.000000,1.000000 
	C2128.000000,91.030609 2128.000000,181.061676 2127.658691,271.464172 
	C2124.571777,270.216705 2122.012939,268.001648 2119.050537,267.072906 
	C2094.445312,259.358612 2069.069092,255.363907 2043.438599,254.242645 
	C2022.703613,253.335526 2001.870850,253.202835 1981.161987,256.839355 
	C1964.979614,259.681000 1949.353516,263.642426 1934.878174,271.579712 
	C1916.307739,281.762482 1902.881470,296.437958 1896.046509,316.636322 
	C1891.372803,330.448212 1889.943359,344.648987 1890.808594,359.298431 
	C1891.403687,369.376923 1893.272217,378.983093 1897.558716,387.928894 
	C1904.858398,403.163147 1916.302979,415.018585 1930.461060,423.969360 
	C1949.399536,435.942719 1968.736938,447.283783 1987.824463,459.024048 
	C1992.642456,461.987366 1998.177368,464.871094 1998.886719,471.241364 
	C1999.801758,479.458618 1995.920898,485.302216 1987.729614,487.943085 
	C1973.978149,492.376465 1959.931519,489.391510 1946.061157,488.798676 
	C1934.014771,488.283783 1922.020142,486.407288 1910.021729,484.972931 
	C1900.488770,483.833405 1890.950928,482.658020 1881.480347,481.102356 
	C1875.742920,480.159912 1868.310791,483.507233 1867.201416,488.674622 
	C1865.841553,495.009125 1865.079224,501.470154 1863.992065,507.865143 
	C1861.900879,520.163147 1860.036011,532.508728 1857.554199,544.728271 
	C1855.710327,553.806763 1857.080322,557.757446 1866.285400,559.893372 
	C1881.533936,563.431641 1896.901245,566.815125 1912.406006,568.796570 
	C1929.968140,571.040894 1947.726685,571.844666 1965.422119,572.896606 
	C1970.970337,573.226501 1976.607666,572.502563 1982.175171,571.962158 
	C1991.598267,571.047607 2001.105713,570.465759 2010.384399,568.717651 
	C2026.880615,565.609741 2042.825317,560.529480 2057.381348,551.908691 
	C2075.310059,541.290283 2088.731934,526.676331 2096.018311,506.898193 
	C2102.022705,490.600281 2104.128418,473.919678 2102.139893,456.513275 
	C2100.280762,440.241119 2093.666016,426.500488 2082.952393,414.475342 
	C2066.283203,395.765747 2044.123657,384.769287 2023.224121,371.984467 
	C2014.834839,366.852356 2006.644165,361.388672 1998.462036,355.927429 
	C1994.617554,353.361328 1993.799805,348.798126 1995.327026,345.360596 
	C1996.551636,342.604431 2000.480103,339.427277 2003.338989,339.296814 
	C2016.631226,338.690216 2029.993774,338.589050 2043.282837,339.260590 
	C2054.669434,339.835968 2065.990967,341.703247 2077.341309,343.000153 
	C2086.749756,344.075165 2096.196045,344.905487 2105.551270,346.330109 
	C2110.309570,347.054718 2113.924316,346.090820 2115.950195,341.757996 
	C2117.357178,338.748199 2118.356445,335.446747 2118.937744,332.169189 
	C2121.426758,318.127899 2123.668945,304.042938 2126.108154,289.992493 
	C2126.238525,289.241455 2127.346680,288.660217 2128.000000,287.999969 
M1363.004028,220.615082 
	C1366.002686,204.050980 1369.326294,187.536636 1371.873291,170.903381 
	C1373.314941,161.489395 1370.648193,156.979828 1358.354858,156.992554 
	C1334.028564,157.017731 1309.701660,156.918137 1285.376709,157.102417 
	C1282.295776,157.125748 1279.065674,158.167572 1276.180908,159.389435 
	C1268.603271,162.598923 1269.354126,170.188522 1268.095215,176.433167 
	C1265.567749,188.969391 1263.570679,201.612823 1261.375244,214.215561 
	C1259.568237,224.588074 1257.819702,234.970825 1255.992310,245.339722 
	C1253.828613,257.617401 1251.596558,269.883026 1249.415527,282.157715 
	C1247.262939,294.272461 1245.138062,306.392151 1242.999512,318.509369 
	C1240.860352,330.628998 1238.719971,342.748352 1236.578979,354.867615 
	C1234.720093,365.390656 1232.853394,375.912231 1231.001343,386.436432 
	C1228.868042,398.559937 1226.801147,410.695435 1224.605225,422.807556 
	C1222.469971,434.585297 1220.083740,446.318451 1218.033813,458.110504 
	C1215.534912,472.485138 1213.410156,486.925262 1210.867676,501.291748 
	C1208.415894,515.146423 1205.146851,528.874084 1203.181885,542.790955 
	C1201.943115,551.564331 1203.715454,555.037964 1212.424438,557.099060 
	C1214.125854,557.501709 1215.670898,558.648804 1217.375610,558.940125 
	C1239.260742,562.680176 1261.079346,566.970459 1283.085815,569.784851 
	C1299.371826,571.867737 1315.897217,572.465393 1332.335815,572.831726 
	C1342.820679,573.065308 1353.379883,572.022644 1363.835815,570.900879 
	C1373.659180,569.846985 1383.559204,568.617371 1393.124634,566.250000 
	C1408.682983,562.399536 1423.262939,556.340698 1436.885742,547.318970 
	C1448.908569,539.356750 1459.215576,529.802368 1467.533813,518.545105 
	C1485.279175,494.529572 1494.479004,466.724030 1499.963257,437.630798 
	C1502.213989,425.690582 1504.220337,413.698578 1506.050049,401.686371 
	C1507.886597,389.629944 1510.468140,377.537842 1510.676025,365.426270 
	C1510.867065,354.293427 1509.188599,342.928772 1506.822998,331.993073 
	C1501.806030,308.800995 1489.725342,289.555115 1470.616821,275.351990 
	C1452.051392,261.552612 1430.378296,255.519806 1407.680664,254.258194 
	C1394.258789,253.512161 1380.692627,255.296509 1367.195435,256.020813 
	C1363.853394,256.200165 1360.527466,256.682098 1356.746948,257.070953 
	C1358.911987,244.755295 1360.956055,233.128448 1363.004028,220.615082 
M1836.519897,377.984528 
	C1837.762207,370.464447 1838.908569,362.926971 1840.267944,355.428101 
	C1842.778687,341.576904 1845.515747,327.766296 1847.969849,313.905365 
	C1850.456665,299.859955 1852.534302,285.740540 1855.141357,271.718689 
	C1856.720093,263.228333 1853.711914,259.004059 1845.228638,259.002167 
	C1818.397827,258.996277 1791.567139,258.997681 1764.736328,259.001678 
	C1758.295166,259.002655 1754.720703,261.321777 1753.087280,267.587860 
	C1751.502686,273.666260 1750.578979,279.920776 1749.452515,286.113831 
	C1747.598145,296.309540 1745.800903,306.515717 1744.003418,316.721649 
	C1741.811768,329.164612 1739.658325,341.614258 1737.463623,354.056671 
	C1735.325562,366.177185 1733.144287,378.290070 1731.004028,390.410187 
	C1728.778931,403.010620 1726.557007,415.611755 1724.376587,428.220001 
	C1722.222778,440.674377 1720.297974,453.171814 1717.907471,465.579987 
	C1717.032227,470.122345 1717.925781,475.886139 1711.573364,477.811279 
	C1705.738281,479.579651 1700.015747,481.737091 1694.143799,483.362610 
	C1682.907349,486.473145 1671.496460,488.388184 1659.858521,485.942078 
	C1655.180420,484.958801 1650.715576,482.738312 1649.166138,477.938721 
	C1647.793823,473.687561 1646.753906,468.940277 1647.190308,464.574249 
	C1648.123291,455.238434 1650.065308,446.000458 1651.668823,436.735382 
	C1653.740479,424.765594 1655.948120,412.819153 1657.981812,400.843109 
	C1660.425049,386.456177 1662.616333,372.025482 1665.159058,357.656616 
	C1667.611328,343.798828 1670.445923,330.009186 1672.977051,316.164825 
	C1675.714844,301.190796 1678.189331,286.168213 1680.985962,271.205597 
	C1682.564697,262.759216 1679.750000,259.000275 1671.288696,259.000153 
	C1644.291260,258.999725 1617.293823,258.994354 1590.296387,259.004242 
	C1584.101929,259.006500 1580.820190,261.295776 1578.985474,267.391754 
	C1577.737671,271.537872 1576.769897,275.795502 1576.039917,280.065308 
	C1573.580933,294.450653 1571.423828,308.888306 1568.888306,323.259644 
	C1566.077026,339.193604 1562.846802,355.053680 1560.041138,370.988556 
	C1557.510376,385.361969 1555.344116,399.799194 1552.948242,414.196808 
	C1550.340942,429.866089 1546.278687,445.439545 1545.331787,461.203796 
	C1543.989136,483.555664 1543.734131,506.119781 1552.928101,527.524536 
	C1559.530273,542.895447 1569.414062,555.135803 1584.273438,563.001770 
	C1605.276245,574.119873 1627.778809,574.602478 1650.375000,570.624939 
	C1665.089966,568.034851 1679.240479,562.817749 1692.548218,555.781982 
	C1698.977173,552.383057 1705.203125,548.600464 1712.288818,544.552979 
	C1711.474365,548.109680 1710.915894,550.747253 1710.263672,553.361450 
	C1707.704468,563.617615 1711.113403,567.999451 1721.690063,567.999756 
	C1745.021118,568.000427 1768.352295,568.009644 1791.683350,567.994385 
	C1799.213501,567.989502 1802.340942,566.254028 1803.900269,558.996704 
	C1806.989746,544.618347 1809.337769,530.080750 1812.001099,515.610657 
	C1814.285889,503.196716 1816.661499,490.798859 1818.850220,478.368042 
	C1820.677734,467.988770 1822.215942,457.558777 1824.021851,447.175507 
	C1826.130249,435.052551 1828.434937,422.963837 1830.570923,410.845520 
	C1832.455811,400.152740 1834.225708,389.439636 1836.519897,377.984528 
M892.003723,449.631165 
	C893.002625,444.220581 894.058960,438.819855 894.988770,433.397400 
	C897.098083,421.096771 899.045654,408.767639 901.243774,396.483185 
	C903.722656,382.629303 906.509949,368.830475 908.966370,354.972839 
	C911.173279,342.523071 913.016663,330.009064 915.198730,317.554657 
	C917.348755,305.283112 919.764526,293.058350 921.987000,280.799194 
	C924.297424,268.054535 926.533325,255.296249 928.769897,242.538315 
	C930.867981,230.570694 932.917175,218.594498 935.001099,206.624359 
	C937.195496,194.019669 939.213684,181.379929 941.683960,168.829315 
	C943.066956,161.803207 939.449158,156.087814 932.332031,156.054855 
	C903.839539,155.922882 875.345032,155.875916 846.853882,156.108810 
	C841.390747,156.153458 836.229004,158.443970 833.814819,163.871994 
	C832.340088,167.187759 831.662354,170.926132 831.051758,174.546402 
	C828.274475,191.015350 825.828796,207.541656 822.922485,223.987030 
	C819.121094,245.496918 814.851257,266.924072 811.057007,288.435150 
	C807.509460,308.547424 804.473206,328.749878 800.928955,348.862762 
	C797.475464,368.460419 793.455444,387.958984 790.068420,407.567444 
	C786.782837,426.588318 783.727661,445.657471 781.055420,464.773132 
	C778.909241,480.125946 779.305908,495.347382 783.702515,510.520416 
	C790.841003,535.156067 807.139832,551.086365 829.988281,560.906067 
	C851.885132,570.316772 875.258606,572.179077 898.725708,572.925476 
	C904.129761,573.097290 909.561584,572.294556 914.984192,572.009705 
	C922.068298,571.637634 929.172913,571.539307 936.238770,570.959106 
	C950.755310,569.767212 965.250854,568.320312 979.757263,567.003113 
	C989.889709,566.083069 994.440430,561.884521 996.018188,552.444641 
	C999.276123,532.952637 1002.111633,513.362793 1006.253662,494.056244 
	C1008.660706,482.836884 1002.698242,478.898254 993.565796,478.944824 
	C964.406982,479.093536 935.246948,479.016724 906.087341,478.990082 
	C897.053650,478.981812 892.028564,475.454620 891.154663,467.220306 
	C890.573792,461.746399 891.659973,456.095551 892.003723,449.631165 
M1190.551880,261.051941 
	C1188.608521,260.367981 1186.667725,259.096985 1184.721313,259.088226 
	C1156.232544,258.959930 1127.742798,258.939789 1099.254639,259.119232 
	C1097.076904,259.132996 1094.679077,260.508728 1092.782593,261.825989 
	C1087.752808,265.319550 1088.101440,271.333130 1087.170532,276.362091 
	C1083.453979,296.438141 1080.477417,316.649872 1076.933350,336.759583 
	C1073.479980,356.354523 1069.510864,375.858643 1066.057495,395.453644 
	C1062.513306,415.563721 1059.447510,435.757935 1055.931152,455.873169 
	C1053.145996,471.806244 1049.932007,487.663818 1047.025879,503.576385 
	C1043.972534,520.296143 1041.168945,537.062073 1038.038452,553.766968 
	C1036.425537,562.374023 1039.437866,567.913513 1046.760498,567.948303 
	C1073.916260,568.077454 1101.075195,568.178528 1128.228027,567.869629 
	C1134.721191,567.795715 1139.280151,565.871765 1140.972778,557.369568 
	C1143.434326,545.004456 1145.803589,532.617554 1147.964478,520.196838 
	C1151.103149,502.155823 1153.935303,484.061584 1157.058350,466.017792 
	C1159.929077,449.432251 1163.077637,432.894958 1165.981812,416.315094 
	C1168.749390,400.515015 1171.266724,384.670959 1174.062988,368.876129 
	C1177.278564,350.712463 1180.663940,332.578705 1184.005737,314.437469 
	C1186.291626,302.029022 1188.887451,289.670044 1190.816528,277.207245 
	C1191.594238,272.182404 1190.963135,266.939514 1190.551880,261.051941 
M1211.000000,175.541183 
	C1211.348267,172.963165 1211.548462,170.354630 1212.072266,167.812805 
	C1213.676514,160.027145 1211.158569,156.115723 1203.467285,156.069427 
	C1174.838623,155.897049 1146.206543,155.822891 1117.579956,156.120438 
	C1110.036743,156.198837 1104.965454,160.339722 1103.869629,167.221710 
	C1101.278442,183.496857 1098.120850,199.685013 1095.005737,215.872467 
	C1092.857544,227.036163 1095.175415,230.000000 1106.641113,230.000000 
	C1134.937866,230.000000 1163.234619,230.005554 1191.531372,229.996155 
	C1198.806030,229.993744 1201.618896,227.903320 1202.963135,220.800659 
	C1205.757935,206.031891 1208.333984,191.221680 1211.000000,175.541183 
z"/>
<path fill="#cbcbcb" opacity="1.000000" stroke="none" 
	d="
M368.531342,1.000000 
	C370.148499,1.333319 371.276550,1.822003 372.448608,1.976097 
	C385.196503,3.652097 397.963562,5.186396 410.701447,6.933935 
	C431.087402,9.730731 450.543396,16.010355 469.815857,22.955570 
	C490.657410,30.466249 510.376953,40.335369 529.246277,51.838139 
	C550.454041,64.766464 570.044495,79.805740 587.878601,97.210831 
	C600.326355,109.359177 612.270325,121.860870 622.459534,135.975220 
	C627.478882,142.928116 632.245850,150.073090 637.483215,156.856079 
	C643.935608,165.212601 642.267822,178.973587 631.423523,185.003342 
	C608.481567,197.759644 585.794250,210.973862 563.003052,224.001205 
	C556.574402,227.675797 550.049133,231.193573 543.745667,235.071777 
	C536.424133,239.576385 530.321838,247.110245 537.672302,261.257721 
	C548.050354,281.232422 554.703979,302.579254 559.589111,324.426147 
	C561.888062,334.707153 563.072021,345.310211 563.869507,355.834930 
	C564.769470,367.709961 564.827698,379.659149 564.965027,391.579376 
	C565.216431,413.417938 561.174072,434.710999 555.590942,455.664886 
	C550.490784,474.806000 543.383240,493.278259 534.009644,510.795685 
	C525.218750,527.224243 515.537476,543.115845 503.221222,557.162415 
	C494.184998,567.468140 485.059357,577.786743 475.091919,587.162231 
	C461.604279,599.848999 446.527100,610.566223 430.604523,620.151245 
	C410.470276,632.271484 389.281433,641.910156 366.609955,647.913208 
	C352.596405,651.623779 338.240753,654.049500 324.022858,656.975220 
	C321.155365,657.565247 318.216797,657.809998 315.155518,658.606995 
	C298.645782,659.000000 282.291534,659.000000 265.303192,658.599854 
	C254.682678,656.806152 244.654358,655.659607 234.717880,653.972229 
	C206.698257,649.213867 180.496719,639.257141 155.482819,625.914490 
	C135.770493,615.399780 117.687134,602.521484 101.223160,587.546936 
	C85.165123,572.941528 70.959740,556.595459 58.817566,538.492920 
	C45.842571,519.148682 35.170105,498.638580 26.526331,477.035858 
	C13.716164,445.020477 5.209958,411.996826 2.925061,377.481354 
	C2.845775,376.283661 1.666552,375.158813 1.000000,374.000000 
	C1.000000,373.555542 1.000000,373.111115 1.404553,372.161652 
	C1.539404,366.437775 1.269701,361.218872 0.999999,356.000000 
	C1.000000,350.645081 1.000000,345.290131 1.404554,339.295929 
	C1.539405,333.437775 1.269703,328.218872 1.000000,323.000000 
	C1.000000,322.555542 1.000000,322.111115 1.388741,321.207489 
	C2.183884,319.901062 2.829397,319.089203 2.960900,318.201233 
	C5.006123,304.390533 6.700780,290.521729 9.038716,276.761841 
	C13.731554,249.142288 22.998257,222.870941 35.257431,197.855667 
	C43.456402,181.125366 53.164272,165.020081 63.424206,149.443497 
	C76.017067,130.325089 91.240662,113.288681 107.874374,97.418732 
	C125.057930,81.024185 143.248932,65.981148 163.706955,54.039551 
	C180.370850,44.312641 197.474731,35.147678 215.064758,27.250999 
	C234.259995,18.633703 254.464096,12.315570 275.218048,8.519775 
	C290.710358,5.686307 306.437164,4.137852 322.054474,1.980270 
	C323.389313,1.795857 324.685730,1.333326 326.000000,0.999997 
	C340.020905,1.000000 354.041779,1.000000 368.531342,1.000000 
M421.956482,453.313904 
	C422.053009,452.668823 422.051880,451.990173 422.260437,451.383575 
	C426.878937,437.951233 429.696167,424.174713 429.974091,409.947937 
	C430.120697,402.443848 430.463409,394.898163 429.878174,387.437103 
	C429.205841,378.866028 428.022980,370.283447 426.321899,361.855164 
	C422.559387,343.213043 415.129333,325.951874 405.274933,309.736664 
	C393.511230,290.379852 378.911133,273.445892 360.072174,260.779602 
	C348.753998,253.169891 336.844727,246.183487 324.500122,240.417801 
	C307.107361,232.294327 288.330780,228.300278 269.199707,227.147827 
	C254.752899,226.277557 240.287949,226.976395 225.947800,229.905075 
	C209.594437,233.244904 193.842224,238.338699 179.175552,246.113586 
	C159.933899,256.313721 142.082001,268.697693 128.567032,286.122314 
	C120.252922,296.841522 111.979881,307.797333 105.374153,319.591095 
	C94.225723,339.495270 87.748573,361.345886 86.314117,384.056183 
	C85.352242,399.284698 86.048790,414.901489 88.366051,429.981476 
	C91.224747,448.584991 97.860336,466.298004 107.306725,482.823334 
	C116.152725,498.298370 126.876579,512.148438 139.825882,524.475220 
	C155.557709,539.450745 173.411758,550.807190 193.408432,559.100708 
	C212.805084,567.145386 233.044235,571.234314 253.900681,571.841675 
	C263.209595,572.112793 272.579315,570.792786 281.902252,569.975830 
	C298.151093,568.551880 313.516907,563.556091 328.194183,556.860168 
	C353.885864,545.139343 376.013885,528.615723 393.458710,506.102051 
	C405.725952,490.270386 415.339233,473.079224 421.956482,453.313904 
z"/>
<path fill="#cbcbcb" opacity="1.000000" stroke="none" 
	d="
M2128.000000,287.533112 
	C2127.346680,288.660217 2126.238525,289.241455 2126.108154,289.992493 
	C2123.668945,304.042938 2121.426758,318.127899 2118.937744,332.169189 
	C2118.356445,335.446747 2117.357178,338.748199 2115.950195,341.757996 
	C2113.924316,346.090820 2110.309570,347.054718 2105.551270,346.330109 
	C2096.196045,344.905487 2086.749756,344.075165 2077.341309,343.000153 
	C2065.990967,341.703247 2054.669434,339.835968 2043.282837,339.260590 
	C2029.993774,338.589050 2016.631226,338.690216 2003.338989,339.296814 
	C2000.480103,339.427277 1996.551636,342.604431 1995.327026,345.360596 
	C1993.799805,348.798126 1994.617554,353.361328 1998.462036,355.927429 
	C2006.644165,361.388672 2014.834839,366.852356 2023.224121,371.984467 
	C2044.123657,384.769287 2066.283203,395.765747 2082.952393,414.475342 
	C2093.666016,426.500488 2100.280762,440.241119 2102.139893,456.513275 
	C2104.128418,473.919678 2102.022705,490.600281 2096.018311,506.898193 
	C2088.731934,526.676331 2075.310059,541.290283 2057.381348,551.908691 
	C2042.825317,560.529480 2026.880615,565.609741 2010.384399,568.717651 
	C2001.105713,570.465759 1991.598267,571.047607 1982.175171,571.962158 
	C1976.607666,572.502563 1970.970337,573.226501 1965.422119,572.896606 
	C1947.726685,571.844666 1929.968140,571.040894 1912.406006,568.796570 
	C1896.901245,566.815125 1881.533936,563.431641 1866.285400,559.893372 
	C1857.080322,557.757446 1855.710327,553.806763 1857.554199,544.728271 
	C1860.036011,532.508728 1861.900879,520.163147 1863.992065,507.865143 
	C1865.079224,501.470154 1865.841553,495.009125 1867.201416,488.674622 
	C1868.310791,483.507233 1875.742920,480.159912 1881.480347,481.102356 
	C1890.950928,482.658020 1900.488770,483.833405 1910.021729,484.972931 
	C1922.020142,486.407288 1934.014771,488.283783 1946.061157,488.798676 
	C1959.931519,489.391510 1973.978149,492.376465 1987.729614,487.943085 
	C1995.920898,485.302216 1999.801758,479.458618 1998.886719,471.241364 
	C1998.177368,464.871094 1992.642456,461.987366 1987.824463,459.024048 
	C1968.736938,447.283783 1949.399536,435.942719 1930.461060,423.969360 
	C1916.302979,415.018585 1904.858398,403.163147 1897.558716,387.928894 
	C1893.272217,378.983093 1891.403687,369.376923 1890.808594,359.298431 
	C1889.943359,344.648987 1891.372803,330.448212 1896.046509,316.636322 
	C1902.881470,296.437958 1916.307739,281.762482 1934.878174,271.579712 
	C1949.353516,263.642426 1964.979614,259.681000 1981.161987,256.839355 
	C2001.870850,253.202835 2022.703613,253.335526 2043.438599,254.242645 
	C2069.069092,255.363907 2094.445312,259.358612 2119.050537,267.072906 
	C2122.012939,268.001648 2124.571777,270.216705 2127.658691,271.917786 
	C2128.000000,277.022095 2128.000000,282.044189 2128.000000,287.533112 
z"/>
<path fill="#FFFFFF" opacity="1.000000" stroke="none" 
	d="
M325.531342,0.999997 
	C324.685730,1.333326 323.389313,1.795857 322.054474,1.980270 
	C306.437164,4.137852 290.710358,5.686307 275.218048,8.519775 
	C254.464096,12.315570 234.259995,18.633703 215.064758,27.250999 
	C197.474731,35.147678 180.370850,44.312641 163.706955,54.039551 
	C143.248932,65.981148 125.057930,81.024185 107.874374,97.418732 
	C91.240662,113.288681 76.017067,130.325089 63.424206,149.443497 
	C53.164272,165.020081 43.456402,181.125366 35.257431,197.855667 
	C22.998257,222.870941 13.731554,249.142288 9.038716,276.761841 
	C6.700780,290.521729 5.006123,304.390533 2.960900,318.201233 
	C2.829397,319.089203 2.183884,319.901062 1.388741,320.874146 
	C1.000000,214.405701 1.000000,107.811394 1.000000,1.000000 
	C109.020798,1.000000 217.041733,1.000000 325.531342,0.999997 
z"/>
<path fill="#FFFFFF" opacity="1.000000" stroke="none" 
	d="
M1.000000,374.468658 
	C1.666552,375.158813 2.845775,376.283661 2.925061,377.481354 
	C5.209958,411.996826 13.716164,445.020477 26.526331,477.035858 
	C35.170105,498.638580 45.842571,519.148682 58.817566,538.492920 
	C70.959740,556.595459 85.165123,572.941528 101.223160,587.546936 
	C117.687134,602.521484 135.770493,615.399780 155.482819,625.914490 
	C180.496719,639.257141 206.698257,649.213867 234.717880,653.972229 
	C244.654358,655.659607 254.682678,656.806152 264.834534,658.599854 
	C177.070160,659.000000 89.140312,659.000000 1.000000,659.000000 
	C1.000000,564.312561 1.000000,469.624939 1.000000,374.468658 
z"/>
<path fill="#FFFFFF" opacity="1.000000" stroke="none" 
	d="
M1.000000,323.466858 
	C1.269703,328.218872 1.539405,333.437775 1.404554,338.828308 
	C1.000000,333.977905 1.000000,328.955811 1.000000,323.466858 
z"/>
<path fill="#FFFFFF" opacity="1.000000" stroke="none" 
	d="
M0.999999,356.466858 
	C1.269701,361.218872 1.539404,366.437775 1.404553,371.828308 
	C1.000000,366.977905 1.000000,361.955811 0.999999,356.466858 
z"/>
<path fill="#cbcbcb" opacity="1.000000" stroke="none" 
	d="
M1363.001953,221.058350 
	C1360.956055,233.128448 1358.911987,244.755295 1356.746948,257.070953 
	C1360.527466,256.682098 1363.853394,256.200165 1367.195435,256.020813 
	C1380.692627,255.296509 1394.258789,253.512161 1407.680664,254.258194 
	C1430.378296,255.519806 1452.051392,261.552612 1470.616821,275.351990 
	C1489.725342,289.555115 1501.806030,308.800995 1506.822998,331.993073 
	C1509.188599,342.928772 1510.867065,354.293427 1510.676025,365.426270 
	C1510.468140,377.537842 1507.886597,389.629944 1506.050049,401.686371 
	C1504.220337,413.698578 1502.213989,425.690582 1499.963257,437.630798 
	C1494.479004,466.724030 1485.279175,494.529572 1467.533813,518.545105 
	C1459.215576,529.802368 1448.908569,539.356750 1436.885742,547.318970 
	C1423.262939,556.340698 1408.682983,562.399536 1393.124634,566.250000 
	C1383.559204,568.617371 1373.659180,569.846985 1363.835815,570.900879 
	C1353.379883,572.022644 1342.820679,573.065308 1332.335815,572.831726 
	C1315.897217,572.465393 1299.371826,571.867737 1283.085815,569.784851 
	C1261.079346,566.970459 1239.260742,562.680176 1217.375610,558.940125 
	C1215.670898,558.648804 1214.125854,557.501709 1212.424438,557.099060 
	C1203.715454,555.037964 1201.943115,551.564331 1203.181885,542.790955 
	C1205.146851,528.874084 1208.415894,515.146423 1210.867676,501.291748 
	C1213.410156,486.925262 1215.534912,472.485138 1218.033813,458.110504 
	C1220.083740,446.318451 1222.469971,434.585297 1224.605225,422.807556 
	C1226.801147,410.695435 1228.868042,398.559937 1231.001343,386.436432 
	C1232.853394,375.912231 1234.720093,365.390656 1236.578979,354.867615 
	C1238.719971,342.748352 1240.860352,330.628998 1242.999512,318.509369 
	C1245.138062,306.392151 1247.262939,294.272461 1249.415527,282.157715 
	C1251.596558,269.883026 1253.828613,257.617401 1255.992310,245.339722 
	C1257.819702,234.970825 1259.568237,224.588074 1261.375244,214.215561 
	C1263.570679,201.612823 1265.567749,188.969391 1268.095215,176.433167 
	C1269.354126,170.188522 1268.603271,162.598923 1276.180908,159.389435 
	C1279.065674,158.167572 1282.295776,157.125748 1285.376709,157.102417 
	C1309.701660,156.918137 1334.028564,157.017731 1358.354858,156.992554 
	C1370.648193,156.979828 1373.314941,161.489395 1371.873291,170.903381 
	C1369.326294,187.536636 1366.002686,204.050980 1363.001953,221.058350 
M1332.000122,395.575562 
	C1331.000000,401.483704 1330.009155,407.393433 1328.997925,413.299683 
	C1327.194336,423.836273 1325.407104,434.375854 1323.559082,444.904694 
	C1321.740845,455.262848 1319.797852,465.599365 1318.037720,475.967163 
	C1317.553833,478.816406 1316.348145,482.595032 1317.639404,484.384552 
	C1318.823853,486.026245 1322.922974,485.595490 1325.746826,486.018402 
	C1337.281494,487.745880 1348.804565,489.102081 1360.479248,487.034790 
	C1371.443726,485.093262 1379.537354,479.028870 1385.489502,469.964935 
	C1393.002563,458.523834 1395.529419,445.338074 1397.966187,432.196777 
	C1400.150879,420.414276 1401.892700,408.549377 1404.093750,396.770111 
	C1406.334229,384.780029 1409.212524,372.965149 1407.115112,360.523193 
	C1405.479736,350.821503 1400.647705,343.905426 1391.403931,341.119751 
	C1375.395630,336.295502 1359.168091,340.082581 1343.042480,341.132233 
	C1342.317261,341.179443 1341.249512,342.605927 1341.081177,343.525360 
	C1339.624634,351.491302 1338.392944,359.498016 1336.985596,367.473358 
	C1335.383057,376.554657 1333.669067,385.616241 1332.000122,395.575562 
z"/>
<path fill="#cbcbcb" opacity="1.000000" stroke="none" 
	d="
M1836.283081,378.360016 
	C1834.225708,389.439636 1832.455811,400.152740 1830.570923,410.845520 
	C1828.434937,422.963837 1826.130249,435.052551 1824.021851,447.175507 
	C1822.215942,457.558777 1820.677734,467.988770 1818.850220,478.368042 
	C1816.661499,490.798859 1814.285889,503.196716 1812.001099,515.610657 
	C1809.337769,530.080750 1806.989746,544.618347 1803.900269,558.996704 
	C1802.340942,566.254028 1799.213501,567.989502 1791.683350,567.994385 
	C1768.352295,568.009644 1745.021118,568.000427 1721.690063,567.999756 
	C1711.113403,567.999451 1707.704468,563.617615 1710.263672,553.361450 
	C1710.915894,550.747253 1711.474365,548.109680 1712.288818,544.552979 
	C1705.203125,548.600464 1698.977173,552.383057 1692.548218,555.781982 
	C1679.240479,562.817749 1665.089966,568.034851 1650.375000,570.624939 
	C1627.778809,574.602478 1605.276245,574.119873 1584.273438,563.001770 
	C1569.414062,555.135803 1559.530273,542.895447 1552.928101,527.524536 
	C1543.734131,506.119781 1543.989136,483.555664 1545.331787,461.203796 
	C1546.278687,445.439545 1550.340942,429.866089 1552.948242,414.196808 
	C1555.344116,399.799194 1557.510376,385.361969 1560.041138,370.988556 
	C1562.846802,355.053680 1566.077026,339.193604 1568.888306,323.259644 
	C1571.423828,308.888306 1573.580933,294.450653 1576.039917,280.065308 
	C1576.769897,275.795502 1577.737671,271.537872 1578.985474,267.391754 
	C1580.820190,261.295776 1584.101929,259.006500 1590.296387,259.004242 
	C1617.293823,258.994354 1644.291260,258.999725 1671.288696,259.000153 
	C1679.750000,259.000275 1682.564697,262.759216 1680.985962,271.205597 
	C1678.189331,286.168213 1675.714844,301.190796 1672.977051,316.164825 
	C1670.445923,330.009186 1667.611328,343.798828 1665.159058,357.656616 
	C1662.616333,372.025482 1660.425049,386.456177 1657.981812,400.843109 
	C1655.948120,412.819153 1653.740479,424.765594 1651.668823,436.735382 
	C1650.065308,446.000458 1648.123291,455.238434 1647.190308,464.574249 
	C1646.753906,468.940277 1647.793823,473.687561 1649.166138,477.938721 
	C1650.715576,482.738312 1655.180420,484.958801 1659.858521,485.942078 
	C1671.496460,488.388184 1682.907349,486.473145 1694.143799,483.362610 
	C1700.015747,481.737091 1705.738281,479.579651 1711.573364,477.811279 
	C1717.925781,475.886139 1717.032227,470.122345 1717.907471,465.579987 
	C1720.297974,453.171814 1722.222778,440.674377 1724.376587,428.220001 
	C1726.557007,415.611755 1728.778931,403.010620 1731.004028,390.410187 
	C1733.144287,378.290070 1735.325562,366.177185 1737.463623,354.056671 
	C1739.658325,341.614258 1741.811768,329.164612 1744.003418,316.721649 
	C1745.800903,306.515717 1747.598145,296.309540 1749.452515,286.113831 
	C1750.578979,279.920776 1751.502686,273.666260 1753.087280,267.587860 
	C1754.720703,261.321777 1758.295166,259.002655 1764.736328,259.001678 
	C1791.567139,258.997681 1818.397827,258.996277 1845.228638,259.002167 
	C1853.711914,259.004059 1856.720093,263.228333 1855.141357,271.718689 
	C1852.534302,285.740540 1850.456665,299.859955 1847.969849,313.905365 
	C1845.515747,327.766296 1842.778687,341.576904 1840.267944,355.428101 
	C1838.908569,362.926971 1837.762207,370.464447 1836.283081,378.360016 
z"/>
<path fill="#cbcbcb" opacity="1.000000" stroke="none" 
	d="
M892.001831,450.077545 
	C891.659973,456.095551 890.573792,461.746399 891.154663,467.220306 
	C892.028564,475.454620 897.053650,478.981812 906.087341,478.990082 
	C935.246948,479.016724 964.406982,479.093536 993.565796,478.944824 
	C1002.698242,478.898254 1008.660706,482.836884 1006.253662,494.056244 
	C1002.111633,513.362793 999.276123,532.952637 996.018188,552.444641 
	C994.440430,561.884521 989.889709,566.083069 979.757263,567.003113 
	C965.250854,568.320312 950.755310,569.767212 936.238770,570.959106 
	C929.172913,571.539307 922.068298,571.637634 914.984192,572.009705 
	C909.561584,572.294556 904.129761,573.097290 898.725708,572.925476 
	C875.258606,572.179077 851.885132,570.316772 829.988281,560.906067 
	C807.139832,551.086365 790.841003,535.156067 783.702515,510.520416 
	C779.305908,495.347382 778.909241,480.125946 781.055420,464.773132 
	C783.727661,445.657471 786.782837,426.588318 790.068420,407.567444 
	C793.455444,387.958984 797.475464,368.460419 800.928955,348.862762 
	C804.473206,328.749878 807.509460,308.547424 811.057007,288.435150 
	C814.851257,266.924072 819.121094,245.496918 822.922485,223.987030 
	C825.828796,207.541656 828.274475,191.015350 831.051758,174.546402 
	C831.662354,170.926132 832.340088,167.187759 833.814819,163.871994 
	C836.229004,158.443970 841.390747,156.153458 846.853882,156.108810 
	C875.345032,155.875916 903.839539,155.922882 932.332031,156.054855 
	C939.449158,156.087814 943.066956,161.803207 941.683960,168.829315 
	C939.213684,181.379929 937.195496,194.019669 935.001099,206.624359 
	C932.917175,218.594498 930.867981,230.570694 928.769897,242.538315 
	C926.533325,255.296249 924.297424,268.054535 921.987000,280.799194 
	C919.764526,293.058350 917.348755,305.283112 915.198730,317.554657 
	C913.016663,330.009064 911.173279,342.523071 908.966370,354.972839 
	C906.509949,368.830475 903.722656,382.629303 901.243774,396.483185 
	C899.045654,408.767639 897.098083,421.096771 894.988770,433.397400 
	C894.058960,438.819855 893.002625,444.220581 892.001831,450.077545 
z"/>
<path fill="#cbcbcb" opacity="1.000000" stroke="none" 
	d="
M1190.762573,261.423889 
	C1190.963135,266.939514 1191.594238,272.182404 1190.816528,277.207245 
	C1188.887451,289.670044 1186.291626,302.029022 1184.005737,314.437469 
	C1180.663940,332.578705 1177.278564,350.712463 1174.062988,368.876129 
	C1171.266724,384.670959 1168.749390,400.515015 1165.981812,416.315094 
	C1163.077637,432.894958 1159.929077,449.432251 1157.058350,466.017792 
	C1153.935303,484.061584 1151.103149,502.155823 1147.964478,520.196838 
	C1145.803589,532.617554 1143.434326,545.004456 1140.972778,557.369568 
	C1139.280151,565.871765 1134.721191,567.795715 1128.228027,567.869629 
	C1101.075195,568.178528 1073.916260,568.077454 1046.760498,567.948303 
	C1039.437866,567.913513 1036.425537,562.374023 1038.038452,553.766968 
	C1041.168945,537.062073 1043.972534,520.296143 1047.025879,503.576385 
	C1049.932007,487.663818 1053.145996,471.806244 1055.931152,455.873169 
	C1059.447510,435.757935 1062.513306,415.563721 1066.057495,395.453644 
	C1069.510864,375.858643 1073.479980,356.354523 1076.933350,336.759583 
	C1080.477417,316.649872 1083.453979,296.438141 1087.170532,276.362091 
	C1088.101440,271.333130 1087.752808,265.319550 1092.782593,261.825989 
	C1094.679077,260.508728 1097.076904,259.132996 1099.254639,259.119232 
	C1127.742798,258.939789 1156.232544,258.959930 1184.721313,259.088226 
	C1186.667725,259.096985 1188.608521,260.367981 1190.762573,261.423889 
z"/>
<path fill="#cbcbcb" opacity="1.000000" stroke="none" 
	d="
M1211.000000,175.984833 
	C1208.333984,191.221680 1205.757935,206.031891 1202.963135,220.800659 
	C1201.618896,227.903320 1198.806030,229.993744 1191.531372,229.996155 
	C1163.234619,230.005554 1134.937866,230.000000 1106.641113,230.000000 
	C1095.175415,230.000000 1092.857544,227.036163 1095.005737,215.872467 
	C1098.120850,199.685013 1101.278442,183.496857 1103.869629,167.221710 
	C1104.965454,160.339722 1110.036743,156.198837 1117.579956,156.120438 
	C1146.206543,155.822891 1174.838623,155.897049 1203.467285,156.069427 
	C1211.158569,156.115723 1213.676514,160.027145 1212.072266,167.812805 
	C1211.548462,170.354630 1211.348267,172.963165 1211.000000,175.984833 
z"/>
<path fill="#FFFFFF" opacity="1.000000" stroke="none" 
	d="
M421.730042,453.655396 
	C415.339233,473.079224 405.725952,490.270386 393.458710,506.102051 
	C376.013885,528.615723 353.885864,545.139343 328.194183,556.860168 
	C313.516907,563.556091 298.151093,568.551880 281.902252,569.975830 
	C272.579315,570.792786 263.209595,572.112793 253.900681,571.841675 
	C233.044235,571.234314 212.805084,567.145386 193.408432,559.100708 
	C173.411758,550.807190 155.557709,539.450745 139.825882,524.475220 
	C126.876579,512.148438 116.152725,498.298370 107.306725,482.823334 
	C97.860336,466.298004 91.224747,448.584991 88.366051,429.981476 
	C86.048790,414.901489 85.352242,399.284698 86.314117,384.056183 
	C87.748573,361.345886 94.225723,339.495270 105.374153,319.591095 
	C111.979881,307.797333 120.252922,296.841522 128.567032,286.122314 
	C142.082001,268.697693 159.933899,256.313721 179.175552,246.113586 
	C193.842224,238.338699 209.594437,233.244904 225.947800,229.905075 
	C240.287949,226.976395 254.752899,226.277557 269.199707,227.147827 
	C288.330780,228.300278 307.107361,232.294327 324.500122,240.417801 
	C336.844727,246.183487 348.753998,253.169891 360.072174,260.779602 
	C378.911133,273.445892 393.511230,290.379852 405.274933,309.736664 
	C415.129333,325.951874 422.559387,343.213043 426.321899,361.855164 
	C428.022980,370.283447 429.205841,378.866028 429.878174,387.437103 
	C430.463409,394.898163 430.120697,402.443848 429.974091,409.947937 
	C429.696167,424.174713 426.878937,437.951233 422.260437,451.383575 
	C422.051880,451.990173 422.053009,452.668823 421.730042,453.655396 
z"/>
<path fill="#FFFFFF" opacity="1.000000" stroke="none" 
	d="
M1332.001831,395.130981 
	C1333.669067,385.616241 1335.383057,376.554657 1336.985596,367.473358 
	C1338.392944,359.498016 1339.624634,351.491302 1341.081177,343.525360 
	C1341.249512,342.605927 1342.317261,341.179443 1343.042480,341.132233 
	C1359.168091,340.082581 1375.395630,336.295502 1391.403931,341.119751 
	C1400.647705,343.905426 1405.479736,350.821503 1407.115112,360.523193 
	C1409.212524,372.965149 1406.334229,384.780029 1404.093750,396.770111 
	C1401.892700,408.549377 1400.150879,420.414276 1397.966187,432.196777 
	C1395.529419,445.338074 1393.002563,458.523834 1385.489502,469.964935 
	C1379.537354,479.028870 1371.443726,485.093262 1360.479248,487.034790 
	C1348.804565,489.102081 1337.281494,487.745880 1325.746826,486.018402 
	C1322.922974,485.595490 1318.823853,486.026245 1317.639404,484.384552 
	C1316.348145,482.595032 1317.553833,478.816406 1318.037720,475.967163 
	C1319.797852,465.599365 1321.740845,455.262848 1323.559082,444.904694 
	C1325.407104,434.375854 1327.194336,423.836273 1328.997925,413.299683 
	C1330.009155,407.393433 1331.000000,401.483704 1332.001831,395.130981 
z"/>
</svg>